<?xml version="1.0" encoding="utf-8"?>
<!-- Generator: Adobe Illustrator 16.0.0, SVG Export Plug-In . SVG Version: 6.00 Build 0)  -->
<!DOCTYPE svg PUBLIC "-//W3C//DTD SVG 1.1//EN" "http://www.w3.org/Graphics/SVG/1.1/DTD/svg11.dtd">
<svg version="1.1" id="Layer_1" xmlns="http://www.w3.org/2000/svg" xmlns:xlink="http://www.w3.org/1999/xlink" x="0px" y="0px"
	 width="33.771px" height="33.77px" viewBox="0 0 33.771 33.77" enable-background="new 0 0 33.771 33.77" xml:space="preserve">
<circle fill="#2097D4" cx="16.886" cy="16.886" r="16.886"/>
<g>
	<path fill="#FFFFFF" d="M10.368,21.997c-0.436,1.34-0.602,1.662-1.938,1.672c-1.336,0.012,1.875,0.736,4.116-0.191
		C14.789,22.549,11.171,19.879,10.368,21.997z"/>
	<path fill="#FFFFFF" d="M22.13,9.718c-0.648-0.522-1.723-0.264-2.398,0.575l-6.855,9.739c-0.676,0.84-0.672,0.68-0.025,1.201
		c0.648,0.523,0.492,0.561,1.17-0.279l8.06-8.768C22.755,11.345,22.779,10.24,22.13,9.718z M20.367,10.884
		c0,0-0.1-0.117-0.434-0.383c0.502-0.819,1.484-0.669,1.484-0.669C20.484,10.384,20.367,10.884,20.367,10.884z"/>
	<path fill="#FFFFFF" d="M13.038,16.785l0.457-0.478l-0.438-0.419l0.84-0.876c0.063-0.066,0.061-0.169-0.006-0.233
		c-0.063-0.063-0.169-0.062-0.233,0.005l-0.839,0.877l-0.686-0.659l0.84-0.876c0.064-0.065,0.061-0.169-0.005-0.233
		c-0.065-0.063-0.171-0.061-0.233,0.005l-0.84,0.875l-0.777-0.744l0.842-0.875c0.063-0.066,0.059-0.171-0.004-0.234
		c-0.066-0.063-0.172-0.061-0.236,0.005l-0.84,0.877L9.98,12.938l1.686-1.759c0.064-0.066,0.062-0.17-0.005-0.234
		c-0.066-0.062-0.17-0.06-0.234,0.005L9.74,12.709l-1.073-1.031l2.669-2.783l4.825,4.628l0.46-0.478l-4.827-4.629
		c-0.266-0.253-0.682-0.244-0.936,0.02L8.189,11.22c-0.253,0.264-0.243,0.684,0.02,0.937L13.038,16.785z"/>
	<path fill="#FFFFFF" d="M25.561,21.618l-5.525-5.297l-0.457,0.476l5.523,5.298l-2.668,2.785l-0.849-0.814l0.917-0.955
		c0.063-0.066,0.062-0.172-0.004-0.234c-0.066-0.064-0.171-0.063-0.234,0.004l-0.916,0.957l-0.685-0.656l0.916-0.957
		c0.063-0.064,0.061-0.17-0.005-0.232c-0.067-0.063-0.172-0.061-0.235,0.004l-0.915,0.957l-0.776-0.746l0.916-0.955
		c0.063-0.064,0.061-0.172-0.005-0.236c-0.065-0.061-0.171-0.059-0.232,0.008l-0.917,0.953l-0.752-0.717l1.687-1.76
		c0.064-0.064,0.062-0.17-0.005-0.232s-0.171-0.063-0.234,0.004l-1.684,1.758l-1.088-1.039l0.917-0.959
		c0.063-0.064,0.062-0.168-0.005-0.234c-0.067-0.063-0.172-0.059-0.233,0.006l-0.917,0.955l-0.185-0.178l-0.458,0.479l5.523,5.297
		c0.264,0.254,0.684,0.246,0.937-0.02l2.668-2.779C25.833,22.288,25.824,21.868,25.561,21.618z"/>
</g>
<g>
</g>
<g>
</g>
<g>
</g>
<g>
</g>
<g>
</g>
<g>
</g>
</svg>
