<?xml version="1.0" encoding="utf-8"?>
<!-- Generator: Adobe Illustrator 16.0.0, SVG Export Plug-In . SVG Version: 6.00 Build 0)  -->
<!DOCTYPE svg PUBLIC "-//W3C//DTD SVG 1.1//EN" "http://www.w3.org/Graphics/SVG/1.1/DTD/svg11.dtd">
<svg version="1.1" id="Layer_1" xmlns="http://www.w3.org/2000/svg" xmlns:xlink="http://www.w3.org/1999/xlink" x="0px" y="0px"
	 width="53.248px" height="53.247px" viewBox="0 0 53.248 53.247" enable-background="new 0 0 53.248 53.247" xml:space="preserve">
<circle fill="#1C97D4" cx="26.624" cy="26.623" r="26.624"/>
<path fill="#FFFFFF" d="M38.702,27.64v9.938c0,0.609-0.515,1.124-1.124,1.124H15.68c-0.625,0-1.133-0.504-1.133-1.124V15.678
	c0-0.625,0.508-1.132,1.133-1.132h9.928c0.535-0.757,1.178-1.43,1.907-2H15.68c-1.728,0-3.133,1.405-3.133,3.132v21.899
	c0,1.719,1.405,3.124,3.133,3.124h21.898c1.719,0,3.124-1.405,3.124-3.124V25.733C40.132,26.462,39.459,27.105,38.702,27.64z"/>
<path fill="#FFFFFF" d="M33.294,12.546c-4.085,0-7.408,3.322-7.408,7.407s3.323,7.409,7.408,7.409c4.084,0,7.408-3.324,7.408-7.409
	S37.378,12.546,33.294,12.546z M36.8,20.683h-2.777v2.777l-1.455-0.002l-0.002-2.775h-2.777l0.001-1.457h2.776V16.45l1.457-0.002
	v2.777l2.777-0.001V20.683z"/>
<g>
</g>
<g>
</g>
<g>
</g>
<g>
</g>
<g>
</g>
<g>
</g>
</svg>
