<?xml version="1.0" encoding="utf-8"?>
<!-- Generator: Adobe Illustrator 16.0.0, SVG Export Plug-In . SVG Version: 6.00 Build 0)  -->
<!DOCTYPE svg PUBLIC "-//W3C//DTD SVG 1.1//EN" "http://www.w3.org/Graphics/SVG/1.1/DTD/svg11.dtd">
<svg version="1.1" id="Layer_1" xmlns="http://www.w3.org/2000/svg" xmlns:xlink="http://www.w3.org/1999/xlink" x="0px" y="0px"
	 width="33.771px" height="33.771px" viewBox="0 0 33.771 33.771" enable-background="new 0 0 33.771 33.771" xml:space="preserve">
<circle fill="#2097D4" cx="16.886" cy="16.886" r="16.886"/>
<g>
	<path fill="#FFFFFF" d="M21.447,24.215H11.211V9.557h10.236c0.141,0,0.255-0.115,0.255-0.255V7.81c0-0.141-0.114-0.256-0.255-0.256
		H9.466c-0.142,0-0.256,0.115-0.256,0.256v18.15c0,0.142,0.114,0.257,0.256,0.257h11.981c0.141,0,0.255-0.115,0.255-0.257v-1.491
		C21.702,24.328,21.588,24.215,21.447,24.215z"/>
	<path fill="#FFFFFF" d="M22.908,11.358h-0.145l-1.295,1.295c-0.041,0.041-0.041,0.108,0,0.149l2.976,2.975H13.057
		c-0.058,0-0.104,0.047-0.104,0.104v2.008c0,0.058,0.046,0.105,0.104,0.105h11.388l-2.976,2.975c-0.041,0.041-0.042,0.107,0,0.149
		l1.293,1.293c0.021,0.021,0.048,0.032,0.075,0.032l0.071-0.031l5.455-5.451v-0.15L22.908,11.358z"/>
</g>
<g>
</g>
<g>
</g>
<g>
</g>
<g>
</g>
<g>
</g>
<g>
</g>
</svg>
