<?xml version="1.0" encoding="utf-8"?>
<!-- Generator: Adobe Illustrator 16.0.0, SVG Export Plug-In . SVG Version: 6.00 Build 0)  -->
<!DOCTYPE svg PUBLIC "-//W3C//DTD SVG 1.1//EN" "http://www.w3.org/Graphics/SVG/1.1/DTD/svg11.dtd">
<svg version="1.1" id="Layer_1" xmlns="http://www.w3.org/2000/svg" xmlns:xlink="http://www.w3.org/1999/xlink" x="0px" y="0px"
	 width="53.248px" height="53.247px" viewBox="0 0 53.248 53.247" enable-background="new 0 0 53.248 53.247" xml:space="preserve">
<circle fill="#1C97D4" cx="26.624" cy="26.623" r="26.624"/>
<path fill="#FFFFFF" d="M26.625,26.569c3.443,0,6.234-3.267,6.234-7.297c0-5.588-2.791-7.297-6.234-7.297s-6.234,1.708-6.234,7.297
	C20.391,23.303,23.182,26.569,26.625,26.569z"/>
<path fill="#FFFFFF" d="M24.422,34.656c0-2.38,0.949-4.538,2.483-6.129c-0.094,0.003-0.186,0.022-0.28,0.022
	c-1.69,0-3.314-0.551-4.694-1.596c-0.097-0.073-0.228-0.084-0.335-0.028l-4.882,2.542c-0.314,0.163-0.566,0.432-0.71,0.756
	l-3.146,7.086c-0.217,0.488-0.173,1.047,0.119,1.494c0.291,0.449,0.783,0.716,1.318,0.716h3.438c1.141,1.576,4.4,2.716,8.25,2.716
	c0.859,0,1.683-0.064,2.466-0.171C26.029,40.485,24.422,37.757,24.422,34.656z"/>
<path fill="#FFFFFF" d="M33.268,27.27c-4.073,0-7.387,3.312-7.387,7.386c0,4.072,3.313,7.387,7.387,7.387
	c4.072,0,7.387-3.314,7.387-7.387C40.654,30.582,37.34,27.27,33.268,27.27z M36.763,35.383h-2.769v2.77l-1.452-0.001l-0.002-2.769
	h-2.769l0.001-1.452h2.768v-2.768l1.454-0.002v2.77l2.769-0.001V35.383z"/>
<g>
</g>
<g>
</g>
<g>
</g>
<g>
</g>
<g>
</g>
<g>
</g>
</svg>
