<?xml version="1.0" encoding="utf-8"?>
<!-- Generator: Adobe Illustrator 16.0.0, SVG Export Plug-In . SVG Version: 6.00 Build 0)  -->
<!DOCTYPE svg PUBLIC "-//W3C//DTD SVG 1.1//EN" "http://www.w3.org/Graphics/SVG/1.1/DTD/svg11.dtd">
<svg version="1.1" id="Layer_1" xmlns="http://www.w3.org/2000/svg" xmlns:xlink="http://www.w3.org/1999/xlink" x="0px" y="0px"
	 width="33.771px" height="33.771px" viewBox="0 0 33.771 33.771" enable-background="new 0 0 33.771 33.771" xml:space="preserve">
<circle fill="#2097D4" cx="16.886" cy="16.886" r="16.886"/>
<path fill="#FFFFFF" d="M15.983,24.82h-3.855l-0.059,0.004c-0.049,0.004-0.096,0.008-0.145,0.008c-0.82,0-1.492-0.6-1.53-1.369
	l-0.03-0.623V10.031l-0.005-0.056c-0.005-0.044-0.01-0.088-0.01-0.134c0-0.781,0.657-1.411,1.495-1.434l0.463-0.011v6.642
	l1.393-1.471l1.392,1.471V8.381h6.126l0.451,0.026c0.793,0.032,1.438,0.639,1.467,1.379l0.043,1.114v4.794
	c0.254,0.184,0.496,0.382,0.721,0.607c0.201,0.199,0.377,0.414,0.543,0.635V9.744h-0.045c-0.053-1.363-1.221-2.457-2.678-2.516V7.2
	h-9.912v0.027c-1.509,0.039-2.721,1.192-2.721,2.613c0,0.083,0.008,0.164,0.014,0.245V23.52h0.033
	c0.066,1.387,1.289,2.494,2.791,2.494c0.088,0,0.172-0.006,0.258-0.014h5.947C17.343,25.77,16.613,25.369,15.983,24.82z"/>
<path fill="#FFFFFF" d="M25.72,25.309l-2.258-2.256c0.547-0.764,0.85-1.672,0.85-2.633c0-1.211-0.471-2.348-1.324-3.203
	c-0.857-0.854-1.994-1.327-3.203-1.327s-2.346,0.471-3.201,1.327c-0.855,0.853-1.327,1.992-1.327,3.203
	c0,1.207,0.472,2.346,1.327,3.201s1.992,1.326,3.201,1.326c0.961,0,1.871-0.301,2.635-0.85l2.254,2.258
	c0.148,0.145,0.334,0.215,0.523,0.215c0.191,0,0.381-0.07,0.523-0.215C26.007,26.064,26.007,25.6,25.72,25.309L25.72,25.309z
	 M17.628,22.576C17.05,22,16.732,21.234,16.732,20.42c0-0.816,0.317-1.582,0.896-2.158c0.576-0.578,1.34-0.896,2.156-0.896
	c0.814,0,1.58,0.318,2.158,0.896c0.576,0.576,0.895,1.342,0.895,2.158c0,0.814-0.318,1.58-0.895,2.156
	c-0.578,0.576-1.344,0.895-2.158,0.895C18.968,23.471,18.202,23.152,17.628,22.576L17.628,22.576z M17.628,22.576"/>
<g>
</g>
<g>
</g>
<g>
</g>
<g>
</g>
<g>
</g>
<g>
</g>
</svg>
