<?xml version="1.0" encoding="utf-8"?>
<!-- Generator: Adobe Illustrator 16.0.0, SVG Export Plug-In . SVG Version: 6.00 Build 0)  -->
<!DOCTYPE svg PUBLIC "-//W3C//DTD SVG 1.1//EN" "http://www.w3.org/Graphics/SVG/1.1/DTD/svg11.dtd">
<svg version="1.1" id="Layer_1" xmlns="http://www.w3.org/2000/svg" xmlns:xlink="http://www.w3.org/1999/xlink" x="0px" y="0px"
	 width="33.771px" height="33.77px" viewBox="0 0 33.771 33.77" enable-background="new 0 0 33.771 33.77" xml:space="preserve">
<circle fill="#2097D4" cx="16.886" cy="16.886" r="16.886"/>
<g>
	<path fill="#FFFFFF" d="M20.036,17.93h-0.611c-0.167,0-0.36-0.15-0.423-0.328c-0.058-0.165-0.126-0.328-0.204-0.487
		c-0.081-0.168-0.052-0.41,0.065-0.527l0.436-0.437c0.309-0.305,0.309-0.802,0-1.108l-0.706-0.708
		c-0.148-0.147-0.345-0.228-0.555-0.228c-0.207,0-0.405,0.081-0.555,0.228l-0.436,0.436c-0.07,0.071-0.187,0.112-0.313,0.112
		c-0.076,0-0.151-0.015-0.214-0.045c-0.16-0.076-0.324-0.145-0.487-0.203c-0.18-0.064-0.329-0.257-0.329-0.423V13.6
		c0-0.433-0.35-0.784-0.781-0.784h-1.002c-0.434,0-0.784,0.351-0.784,0.784v0.612c0,0.166-0.148,0.359-0.328,0.423
		c-0.165,0.058-0.327,0.125-0.486,0.203c-0.062,0.03-0.138,0.045-0.216,0.045c-0.125,0-0.241-0.042-0.312-0.112l-0.435-0.436
		c-0.148-0.147-0.348-0.23-0.555-0.23c-0.21,0-0.407,0.083-0.554,0.23l-0.71,0.708c-0.146,0.148-0.228,0.344-0.228,0.554
		c0,0.209,0.081,0.406,0.228,0.554l0.436,0.437c0.119,0.117,0.15,0.359,0.067,0.527C9.97,17.274,9.9,17.438,9.844,17.602
		C9.779,17.779,9.586,17.93,9.42,17.93H8.808c-0.432,0-0.783,0.35-0.783,0.784v1.002c0,0.432,0.352,0.781,0.783,0.781H9.42
		c0.166,0,0.359,0.149,0.424,0.328c0.057,0.164,0.126,0.328,0.202,0.486c0.083,0.169,0.052,0.41-0.067,0.528l-0.436,0.437
		c-0.305,0.305-0.305,0.802,0,1.107l0.71,0.709c0.147,0.147,0.344,0.229,0.554,0.229c0.207,0,0.406-0.081,0.555-0.229l0.436-0.438
		c0.069-0.069,0.188-0.111,0.311-0.111c0.081,0,0.154,0.016,0.217,0.047c0.158,0.076,0.32,0.145,0.486,0.203
		c0.179,0.063,0.327,0.256,0.327,0.422v0.61c0,0.434,0.351,0.785,0.784,0.785h1.002c0.432,0,0.782-0.352,0.782-0.785v-0.61
		c0-0.166,0.148-0.359,0.328-0.422c0.163-0.059,0.327-0.127,0.487-0.203c0.062-0.031,0.138-0.047,0.214-0.047
		c0.126,0,0.242,0.042,0.313,0.111l0.438,0.438c0.147,0.147,0.346,0.229,0.553,0.229c0.21,0,0.406-0.081,0.555-0.229l0.707-0.709
		c0.308-0.306,0.308-0.803,0-1.107l-0.436-0.436c-0.117-0.117-0.147-0.36-0.065-0.527c0.077-0.16,0.146-0.324,0.203-0.488
		c0.063-0.178,0.256-0.328,0.423-0.328h0.611c0.433,0,0.783-0.35,0.783-0.781v-1.002C20.818,18.28,20.468,17.93,20.036,17.93z
		 M14.421,21.51c-1.266,0-2.294-1.03-2.294-2.297c0-1.265,1.028-2.297,2.294-2.297c1.268,0,2.297,1.03,2.297,2.297
		S15.688,21.51,14.421,21.51z"/>
	<path fill="#FFFFFF" d="M25.226,10.718H24.92c-0.023,0-0.073-0.035-0.088-0.077c-0.031-0.087-0.066-0.174-0.107-0.255
		c-0.02-0.041-0.008-0.1,0.006-0.117l0.22-0.216c0.203-0.205,0.203-0.535,0-0.74l-0.355-0.354c-0.099-0.1-0.228-0.153-0.368-0.153
		c-0.14,0-0.271,0.055-0.368,0.153L23.64,9.177c-0.006,0.006-0.03,0.019-0.063,0.019c-0.019,0-0.036-0.005-0.051-0.01
		c-0.082-0.042-0.169-0.077-0.258-0.107c-0.042-0.015-0.075-0.066-0.075-0.089V8.683c0-0.289-0.234-0.523-0.523-0.523h-0.501
		c-0.287,0-0.521,0.234-0.521,0.523v0.306c0,0.023-0.035,0.074-0.076,0.089c-0.088,0.03-0.175,0.064-0.257,0.107
		c-0.015,0.005-0.032,0.01-0.051,0.01c-0.033,0-0.058-0.012-0.063-0.019L20.98,8.959c-0.099-0.098-0.229-0.153-0.369-0.153
		c-0.139,0-0.271,0.055-0.369,0.153l-0.355,0.354c-0.202,0.205-0.202,0.536,0,0.74l0.22,0.216c0.015,0.017,0.025,0.076,0.007,0.117
		c-0.041,0.082-0.075,0.168-0.106,0.255c-0.016,0.042-0.064,0.077-0.089,0.077h-0.307c-0.287,0-0.522,0.236-0.522,0.522v0.5
		c0,0.289,0.235,0.523,0.522,0.523h0.305c0.026,0,0.075,0.035,0.091,0.077c0.031,0.087,0.065,0.174,0.106,0.259
		c0.019,0.038,0.008,0.096-0.007,0.114l-0.22,0.218c-0.098,0.097-0.152,0.229-0.152,0.369c0,0.14,0.055,0.271,0.152,0.369
		l0.355,0.354c0.099,0.099,0.23,0.153,0.369,0.153c0.14,0,0.271-0.054,0.369-0.153l0.219-0.219c0.006-0.006,0.03-0.016,0.063-0.016
		c0.019,0,0.036,0.003,0.051,0.01c0.083,0.04,0.169,0.076,0.257,0.107c0.041,0.014,0.076,0.065,0.076,0.088v0.306
		c0,0.288,0.234,0.523,0.521,0.523h0.501c0.289,0,0.523-0.235,0.523-0.523v-0.306c0-0.023,0.033-0.074,0.075-0.088
		c0.089-0.031,0.176-0.067,0.258-0.107c0.013-0.007,0.032-0.01,0.051-0.01c0.033,0,0.056,0.011,0.063,0.016l0.219,0.219
		c0.098,0.099,0.229,0.153,0.368,0.153c0.141,0,0.27-0.054,0.368-0.153l0.355-0.354c0.203-0.204,0.203-0.536,0-0.738l-0.22-0.218
		c-0.014-0.018-0.025-0.076-0.006-0.114c0.041-0.084,0.076-0.171,0.107-0.259c0.015-0.042,0.064-0.077,0.088-0.077h0.306
		c0.287,0,0.522-0.234,0.522-0.523v-0.5C25.748,10.954,25.513,10.718,25.226,10.718z M22.419,12.507
		c-0.562,0-1.018-0.457-1.018-1.017c0-0.563,0.456-1.018,1.018-1.018c0.561,0,1.018,0.455,1.018,1.018
		C23.437,12.051,22.979,12.507,22.419,12.507z"/>
</g>
<g>
</g>
<g>
</g>
<g>
</g>
<g>
</g>
<g>
</g>
<g>
</g>
</svg>
