<?xml version="1.0" encoding="utf-8"?>
<!-- Generator: Adobe Illustrator 19.1.0, SVG Export Plug-In . SVG Version: 6.00 Build 0)  -->
<svg version="1.1" id="Layer_1" xmlns="http://www.w3.org/2000/svg" xmlns:xlink="http://www.w3.org/1999/xlink" x="0px" y="0px"
	 viewBox="-549 551 100 100" style="enable-background:new -549 551 100 100;" xml:space="preserve">
<style type="text/css">
	.st0{fill:#1C99D6;}
</style>
<g transform="matrix( 1, 0, 0, 1, 0,0) ">
	<g>
		<g id="a">
			<path class="st0" d="M-467.1,632.8c8.8-8.8,13.1-19.4,13.1-31.8s-4.4-23-13.1-31.8c-8.8-8.8-19.4-13.2-31.9-13.2
				c-12.4,0-23,4.4-31.8,13.2c-8.8,8.8-13.2,19.4-13.2,31.8s4.4,23,13.2,31.8c8.8,8.8,19.4,13.2,31.8,13.2
				C-486.6,646-476,641.6-467.1,632.8 M-482.8,580.7c2.8,0,4.2,1.4,4.2,4.2v32.1c0,2.8-1.4,4.2-4.2,4.2h-32.1
				c-0.7,0-1.3-0.1-1.8-0.2c-1.6-0.5-2.3-1.8-2.3-3.9v-32.1c0-2.1,0.8-3.4,2.3-3.9c0.5-0.2,1.2-0.2,1.8-0.2H-482.8z"/>
		</g>
	</g>
</g>
</svg>
